<?xml version="1.0" encoding="UTF-8" standalone="no"?>
<!-- Generator: Adobe Illustrator 27.5.0, SVG Export Plug-In . SVG Version: 6.00 Build 0)  -->

<svg
   version="1.1"
   x="0px"
   y="0px"
   viewBox="0 0 129.63786 234.55072"
   xml:space="preserve"
   id="svg132"
   sodipodi:docname="bomb.svg"
   width="129.63786"
   height="234.55072"
   inkscape:version="1.4.2 (f4327f4, 2025-05-13)"
   xmlns:inkscape="http://www.inkscape.org/namespaces/inkscape"
   xmlns:sodipodi="http://sodipodi.sourceforge.net/DTD/sodipodi-0.dtd"
   xmlns="http://www.w3.org/2000/svg"
   xmlns:svg="http://www.w3.org/2000/svg"><defs
   id="defs132" /><sodipodi:namedview
   id="namedview132"
   pagecolor="#ffffff"
   bordercolor="#000000"
   borderopacity="0.25"
   inkscape:showpageshadow="2"
   inkscape:pageopacity="0.0"
   inkscape:pagecheckerboard="0"
   inkscape:deskcolor="#d1d1d1"
   inkscape:zoom="2.1863742"
   inkscape:cx="10.977078"
   inkscape:cy="98.565014"
   inkscape:window-width="1920"
   inkscape:window-height="991"
   inkscape:window-x="-9"
   inkscape:window-y="1341"
   inkscape:window-maximized="1"
   inkscape:current-layer="g61" />

<g
   id="OBJECT"
   transform="translate(-192.96061,-127.51946)">
	
	<g
   id="g61">
		<g
   id="g41">
			<g
   id="g29"
   transform="matrix(1.1395835,0,0,0.95806173,-32.047644,21.785149)">
				<path
   style="fill:#c69c6d"
   d="m 233.876,224.949 c -8.798,-29.979 -3.939,-53.857 13.684,-67.231 l 4.972,6.551 c -18.856,14.31 -16.262,39.637 -10.765,58.364 z"
   id="path20" />
				<g
   id="g28">
					<path
   style="fill:#8e6740"
   d="m 244.518,160.25 c -0.722,0.656 -1.412,1.339 -2.082,2.036 0.187,1.289 0.382,2.585 0.607,3.872 0.392,2.239 0.901,4.437 1.441,6.597 0.567,-0.841 1.167,-1.668 1.819,-2.471 -0.351,-1.499 -0.679,-3.009 -0.945,-4.531 -0.32,-1.822 -0.585,-3.683 -0.84,-5.503 z"
   id="path21" />
					<path
   style="fill:#8e6740"
   d="m 231.67,204.941 c -0.615,-0.311 -1.22,-0.649 -1.821,-0.994 0.074,0.933 0.167,1.876 0.274,2.825 0.154,0.081 0.306,0.173 0.461,0.251 2.965,1.595 5.773,2.98 8.467,4.185 -0.165,-0.922 -0.315,-1.852 -0.452,-2.785 -2.216,-1.03 -4.517,-2.185 -6.929,-3.482 z"
   id="path22" />
					<path
   style="fill:#8e6740"
   d="m 249.331,160.051 c 0.336,2.012 0.672,4.025 1.003,6.038 0.669,-0.593 1.36,-1.175 2.094,-1.736 -0.016,-0.095 -0.032,-0.19 -0.047,-0.285 z"
   id="path23" />
					<path
   style="fill:#8e6740"
   d="m 240.058,216.107 c -0.197,-0.856 -0.389,-1.717 -0.567,-2.589 -0.969,-0.263 -1.939,-0.519 -2.906,-0.789 -2.076,-0.579 -4.033,-1.156 -5.891,-1.735 0.136,0.858 0.286,1.724 0.448,2.595 1.537,0.468 3.133,0.935 4.812,1.403 1.366,0.381 2.736,0.745 4.104,1.115 z"
   id="path24" />
					<path
   style="fill:#8e6740"
   d="m 237.051,169.181 c 0.491,2.086 1.056,4.123 1.702,6.088 0.554,1.686 1.151,3.406 1.822,5.104 0.395,-1.06 0.846,-2.1 1.337,-3.125 -0.323,-0.908 -0.631,-1.815 -0.927,-2.714 -0.843,-2.564 -1.547,-5.257 -2.116,-8.03 -0.641,0.867 -1.244,1.762 -1.818,2.677 z"
   id="path25" />
					<path
   style="fill:#8e6740"
   d="m 232.83,200.263 c 1.75,1.283 3.5,2.552 5.241,3.81 -0.095,-1.018 -0.168,-2.038 -0.222,-3.06 -1.209,-0.876 -2.42,-1.758 -3.63,-2.645 -1.466,-1.074 -3.007,-2.246 -4.558,-3.468 -0.04,0.974 -0.059,1.959 -0.057,2.956 1.1,0.841 2.181,1.642 3.226,2.407 z"
   id="path26" />
					<path
   style="fill:#8e6740"
   d="m 230.564,188.617 c 2.203,2.72 4.631,5.374 7.2,7.904 0.016,-1.068 0.059,-2.133 0.133,-3.194 -1.951,-2.009 -3.799,-4.079 -5.506,-6.187 -0.526,-0.65 -1.057,-1.33 -1.582,-2.025 -0.209,1.027 -0.381,2.076 -0.536,3.136 0.096,0.121 0.194,0.247 0.291,0.366 z"
   id="path27" />
					<path
   style="fill:#8e6740"
   d="m 235.241,182.849 c 1.048,1.934 2.139,3.734 3.253,5.405 0.188,-1.108 0.418,-2.206 0.685,-3.293 -0.634,-1.035 -1.261,-2.106 -1.872,-3.233 -1.16,-2.135 -2.335,-4.379 -3.37,-6.645 -0.426,0.981 -0.813,1.989 -1.177,3.013 0.799,1.624 1.646,3.217 2.481,4.753 z"
   id="path28" />
				</g>
			</g>
			<g
   id="g40">
				<g
   id="g31">
					<path
   d="m 229.831,249.582 -11.624,-28.267 c 0,0 12.454,-21.577 35.052,-10.551 l 4.839,29.081 z"
   id="path29" />
					<path
   style="fill:#1a1a1a"
   d="m 243.714,233.36 c -2.33,-7.571 -5.175,-15.201 -6.274,-23.086 -0.025,0.004 -0.051,0.005 -0.077,0.01 -1.972,0.328 -3.779,0.944 -5.431,1.716 2.321,10.599 5.944,20.821 9.682,31.007 l 4.696,-1.617 c -0.895,-2.667 -1.769,-5.341 -2.596,-8.03 z"
   id="path30" />
					<path
   style="fill:#1a1a1a"
   d="m 230.022,212.991 c -4.766,2.786 -7.892,6.777 -9.139,8.575 l 10.296,25.036 8.477,-2.92 c -3.701,-10.088 -7.289,-20.211 -9.634,-30.691 z"
   id="path31" />
				</g>
				<path
   d="m 322.379,287.611 c 2.779,34.112 -21.117,67.918 -55.506,73.674 -33.333,5.579 -64.151,-19.321 -72.023,-50.935 -9.362,-37.603 17.28,-68.786 53.138,-76.741 37.945,-8.416 71.203,14.864 74.391,54.002 z"
   id="path32" />
				<path
   style="fill:#1a1a1a"
   d="m 266.426,358.948 c -15.084,2.51 -30.611,-1.437 -43.721,-11.112 -12.512,-9.234 -21.822,-23.106 -25.546,-38.06 -3.832,-15.392 -1.589,-30.425 6.487,-43.473 9.311,-15.042 25.661,-26.112 44.858,-30.37 1.254,-0.279 2.523,-0.525 3.774,-0.733 17.234,-2.867 33.659,0.961 46.25,10.78 12.445,9.705 20.073,24.558 21.48,41.825 2.755,33.822 -21.257,65.733 -53.528,71.135 z"
   id="path33" />
				<path
   style="fill:#febd01"
   d="m 320.009,287.805 c -0.89,-10.919 -4.274,-20.868 -9.784,-29.165 3.649,7.749 5.946,16.387 6.699,25.629 1.971,24.196 -7.808,47.54 -24.338,63.448 18.071,-13.345 29.358,-36.15 27.423,-59.912 z"
   id="path34" />
				<path
   style="fill:#febd01"
   d="m 201.535,315.184 c -4.494,-18.05 -1.863,-35.679 7.608,-50.98 5.074,-8.198 11.949,-15.372 20.096,-21.224 -10.695,5.633 -19.605,13.65 -25.592,23.323 -8.076,13.048 -10.32,28.08 -6.488,43.473 2.244,9.009 6.526,17.618 12.304,25.064 -3.522,-6.197 -6.227,-12.827 -7.928,-19.656 z"
   id="path35" />
				<path
   d="m 295.152,250.288 c -11.533,-8.994 -26.578,-12.5 -42.363,-9.874 -1.146,0.191 -2.309,0.417 -3.457,0.672 -8.044,1.784 -15.531,4.887 -22.116,9.034 0.818,-0.197 1.643,-0.376 2.486,-0.516 19.201,-3.195 37.357,9.781 40.552,28.982 3.195,19.202 -9.781,37.357 -28.983,40.552 -18.973,3.157 -36.915,-9.479 -40.422,-28.304 -0.531,5.823 -0.058,11.825 1.452,17.888 3.411,13.697 11.939,26.403 23.399,34.862 12.008,8.862 26.231,12.477 40.047,10.178 l 0.05,-0.008 c 11.708,-1.96 22.219,-7.738 30.5,-15.917 -1,0.426 -2.058,0.754 -3.178,0.94 -7.608,1.266 -14.801,-3.875 -16.067,-11.483 -1.266,-7.608 3.875,-14.801 11.483,-16.067 7.608,-1.266 14.802,3.875 16.067,11.483 0.295,1.775 0.229,3.524 -0.123,5.184 7.503,-11.29 11.503,-25.106 10.347,-39.296 -1.288,-15.816 -8.275,-29.421 -19.674,-38.31 z"
   id="path36" />
				<path
   style="fill:#666666"
   d="m 232.302,252.876 c -11.229,7.049 -21.177,18.598 -24.411,31.67 -3.712,15.01 0.083,31.038 10.454,42.583 5.421,6.035 15.188,-2.023 9.719,-8.084 -8.062,-8.934 -10.939,-21.393 -9.442,-33.19 0.705,-5.555 2.075,-11.312 4.037,-16.555 2.115,-5.65 6.318,-11.255 10.01,-15.98 0.173,-0.223 -0.11,-0.606 -0.367,-0.444 z"
   id="path37" />
				<path
   style="fill:#666666"
   d="m 239.207,331.102 c -0.2,-0.243 -0.427,-0.461 -0.679,-0.654 -0.199,-0.251 -0.433,-0.456 -0.702,-0.615 -0.459,-0.247 -0.919,-0.494 -1.378,-0.74 -0.514,-0.123 -1.028,-0.246 -1.542,-0.368 -0.547,0.017 -1.093,0.034 -1.64,0.051 -0.836,0.107 -1.582,0.409 -2.238,0.906 -0.487,0.228 -0.888,0.561 -1.202,0.997 -0.409,0.344 -0.709,0.764 -0.902,1.262 -0.311,0.439 -0.496,0.925 -0.554,1.46 -0.258,0.782 -0.302,1.586 -0.133,2.411 0.07,0.315 0.162,0.624 0.275,0.927 0.038,0.338 0.145,0.646 0.32,0.923 0.462,0.986 1.135,1.797 2.019,2.433 0.465,0.25 0.93,0.499 1.395,0.749 1.044,0.394 2.118,0.501 3.22,0.321 0.846,-0.108 1.601,-0.414 2.265,-0.917 0.716,-0.372 1.301,-0.902 1.755,-1.589 0.503,-0.652 0.815,-1.377 0.935,-2.175 0.261,-0.791 0.306,-1.604 0.134,-2.44 -0.189,-1.1 -0.638,-2.081 -1.348,-2.942 z"
   id="path38" />
				<path
   style="fill:#666666"
   d="m 301.522,258.411 c -6.831,-7.748 -17.534,-11.666 -27.68,-12.749 -0.277,-0.03 -0.381,0.381 -0.114,0.478 4.633,1.688 9.58,4.255 12.782,8.125 2.794,3.377 4.819,7.42 7.397,10.962 2.174,2.987 7.137,1.919 8.33,-1.386 0.043,-0.12 0.086,-0.239 0.129,-0.358 0.608,-1.684 0.367,-3.698 -0.844,-5.072 z"
   id="path39" />
				<path
   style="fill:#666666"
   d="m 307.236,270.447 c -0.316,-0.607 -0.765,-1.103 -1.348,-1.488 -0.753,-0.534 -1.588,-0.851 -2.506,-0.951 -1.411,-0.083 -2.796,0.264 -3.903,1.186 -1.014,0.845 -1.728,2.177 -1.865,3.49 -0.15,1.434 0.329,2.778 1.186,3.903 0.832,1.092 2.17,1.667 3.49,1.865 0.959,0.094 1.876,-0.059 2.753,-0.458 0.836,-0.392 1.524,-0.962 2.063,-1.712 0.73,-0.901 0.97,-2.039 0.935,-3.16 0.005,-0.252 -0.004,-0.503 -0.027,-0.753 -0.092,-0.719 -0.351,-1.36 -0.778,-1.922 z"
   id="path40" />
			</g>
		</g>
		<g
   id="g60"
   transform="rotate(-49.072059,268.8699,172.03876)">
			<path
   style="fill:#ff7101"
   d="m 205.028,162.395 c 28.91,-6.704 36.514,2.736 24.752,30.729 11.761,-27.994 22.125,-27.691 33.737,0.984 -11.612,-28.675 -5.299,-35.814 20.551,-23.239 -25.85,-12.575 -24.611,-21.406 4.034,-28.749 -28.645,7.342 -33.156,-2.731 -14.684,-32.793 -18.471,30.061 -31.927,30.725 -43.802,2.16 11.875,28.565 2.897,36.158 -29.227,24.718 32.124,11.441 33.549,19.486 4.639,26.19 z"
   id="path41" />
			<g
   id="g50">
				<g
   id="g49">
					<path
   style="fill:#febd01"
   d="m 216.411,142.128 c 21.992,7.101 23.568,16.309 5.131,29.977 18.437,-13.667 25.304,-9.349 22.355,14.057 2.949,-23.406 9.882,-25.575 22.571,-7.058 -12.689,-18.517 -8.537,-23.811 13.515,-17.234 -22.053,-6.577 -21.307,-14.971 2.426,-27.326 -23.733,12.355 -33.046,7.44 -30.316,-15.998 -2.73,23.439 -11.629,24.845 -28.971,4.577 17.342,20.267 15.28,26.105 -6.711,19.005 z"
   id="path42" />
					<path
   style="fill:#febd01"
   d="m 205.063,151.806 c 6.35,1.352 13.003,1.383 19.423,1.118 0.028,-0.001 0.028,-0.049 -10e-4,-0.051 -6.436,-0.615 -12.97,-1.449 -19.426,-1.452 -0.224,-0.001 -0.195,0.343 0.004,0.385 z"
   id="path43" />
					<path
   style="fill:#febd01"
   d="m 227.973,184.749 c -0.126,0.253 0.255,0.458 0.416,0.247 3.552,-4.671 6.41,-10.284 9.304,-15.423 0.016,-0.028 -0.022,-0.06 -0.041,-0.032 -3.319,4.88 -7.042,9.895 -9.679,15.208 z"
   id="path44" />
					<path
   style="fill:#febd01"
   d="m 240.424,114.601 c -0.045,5.419 1.073,10.8 1.751,16.17 0.004,0.034 0.052,0.027 0.05,-0.006 -0.348,-5.378 -0.257,-10.843 -1.326,-16.157 -0.052,-0.256 -0.473,-0.303 -0.475,-0.007 z"
   id="path45" />
					<path
   style="fill:#febd01"
   d="m 268.487,121.189 c -3.761,4.784 -6.929,10.244 -10.126,15.447 -0.021,0.035 0.026,0.073 0.051,0.04 3.614,-4.893 7.468,-9.846 10.511,-15.145 0.173,-0.301 -0.215,-0.624 -0.436,-0.342 z"
   id="path46" />
					<path
   style="fill:#febd01"
   d="m 266.847,150.832 c 5.271,0.641 10.314,1.699 15.629,1.306 0.305,-0.022 0.271,-0.466 -0.005,-0.527 -5.252,-1.156 -10.301,-0.821 -15.604,-0.945 -0.103,-0.003 -0.128,0.153 -0.02,0.166 z"
   id="path47" />
					<path
   style="fill:#febd01"
   d="m 264.305,165.713 c 1.848,2.022 3.819,4.053 6.017,5.667 0.146,0.107 0.357,-0.088 0.225,-0.236 -1.838,-2.05 -4.04,-3.813 -6.225,-5.45 -0.011,-0.008 -0.027,0.007 -0.017,0.019 z"
   id="path48" />
					<path
   style="fill:#febd01"
   d="m 252.34,185.106 c 0.052,0.256 0.475,0.303 0.475,0.007 0.003,-3.175 -0.75,-6.365 -1.159,-9.511 -0.003,-0.025 -0.039,-0.02 -0.037,0.005 0.215,3.144 0.095,6.394 0.721,9.499 z"
   id="path49" />
				</g>
			</g>
			<g
   id="g59">
				<path
   style="fill:#ffffff"
   d="m 238.754,142.193 c 6.512,7.055 5.271,10.606 -4.041,11.557 9.312,-0.951 10.933,1.987 5.277,9.566 5.656,-7.578 8.575,-6.896 9.501,2.221 -0.926,-9.117 1.606,-10.107 8.243,-3.222 -6.637,-6.885 -4.721,-9.668 6.238,-9.059 -10.959,-0.609 -13.342,-4.264 -7.758,-11.9 -5.584,7.635 -9.06,6.278 -11.315,-4.419 2.255,10.697 0.367,12.311 -6.145,5.256 z"
   id="path50" />
				<path
   style="fill:#ffffff"
   d="m 218.727,156.298 c 3.641,-0.326 7.254,-1.15 10.841,-1.814 0.024,-0.004 0.019,-0.042 -0.005,-0.039 -3.612,0.51 -7.304,0.879 -10.853,1.724 -0.078,0.018 -0.066,0.136 0.017,0.129 z"
   id="path51" />
				<path
   style="fill:#ffffff"
   d="m 231.775,164.749 c -0.088,0.09 0.023,0.249 0.126,0.165 2.588,-2.124 5.006,-4.456 7.34,-6.864 0.022,-0.023 -0.006,-0.063 -0.032,-0.042 -2.583,2.118 -5.099,4.333 -7.434,6.741 z"
   id="path52" />
				<path
   style="fill:#ffffff"
   d="m 244.39,164.078 c -1.82,4.944 -3.705,9.864 -5.011,14.996 -0.046,0.18 0.195,0.297 0.27,0.117 2.001,-4.876 3.419,-9.972 4.905,-15.042 0.032,-0.109 -0.124,-0.181 -0.164,-0.071 z"
   id="path53" />
				<path
   style="fill:#ffffff"
   d="m 251.871,162.066 c 1.231,3.07 2.432,6.186 3.939,9.132 0.072,0.141 0.276,0.059 0.22,-0.092 -1.144,-3.108 -2.621,-6.102 -4.043,-9.088 -0.036,-0.076 -0.147,-0.031 -0.116,0.048 z"
   id="path54" />
				<path
   style="fill:#ffffff"
   d="m 257.124,156.213 c 3.425,1.396 6.922,2.717 10.48,3.673 0.12,0.032 0.164,-0.164 0.052,-0.21 -3.413,-1.427 -6.977,-2.512 -10.523,-3.499 -0.021,-0.007 -0.029,0.028 -0.009,0.036 z"
   id="path55" />
				<path
   style="fill:#ffffff"
   d="m 258.107,147.799 c -0.03,0.019 10e-4,0.073 0.032,0.056 5.008,-2.87 10.085,-5.691 14.89,-8.905 0.087,-0.058 -0.003,-0.218 -0.097,-0.167 -5.078,2.748 -9.947,5.923 -14.825,9.016 z"
   id="path56" />
				<path
   style="fill:#ffffff"
   d="m 254.44,124.807 c -1.59,6.294 -3.361,12.586 -4.273,19.051 -0.003,0.021 0.03,0.032 0.036,0.011 1.943,-6.195 3.053,-12.659 4.322,-19.037 0.01,-0.05 -0.072,-0.075 -0.085,-0.025 z"
   id="path57" />
				<path
   style="fill:#ffffff"
   d="m 235.24,133.667 c 2.274,3.217 5.125,6.193 7.792,9.071 0.078,0.084 0.211,-0.017 0.138,-0.111 -2.437,-3.098 -4.947,-6.389 -7.766,-9.133 -0.103,-0.099 -0.242,0.064 -0.164,0.173 z"
   id="path58" />
				<path
   style="fill:#ffffff"
   d="m 228.946,143.237 c 2.917,1.983 5.947,3.826 8.985,5.599 0.013,0.007 0.024,-0.014 0.012,-0.022 -2.908,-1.997 -5.875,-3.955 -8.906,-5.744 -0.093,-0.055 -0.181,0.106 -0.091,0.167 z"
   id="path59" />
			</g>
		</g>
	</g>
	
	
	
	
	
</g>

</svg>
