<?xml version="1.0" encoding="UTF-8" standalone="no"?>
<!-- Generator: Adobe Illustrator 27.5.0, SVG Export Plug-In . SVG Version: 6.00 Build 0)  -->

<svg
   version="1.1"
   x="0px"
   y="0px"
   viewBox="0 0 125.10461 107.5132"
   xml:space="preserve"
   id="svg96"
   sodipodi:docname="1114118_114920-OOTC8G-36.svg"
   width="125.10461"
   height="107.5132"
   inkscape:version="1.4.2 (f4327f4, 2025-05-13)"
   xmlns:inkscape="http://www.inkscape.org/namespaces/inkscape"
   xmlns:sodipodi="http://sodipodi.sourceforge.net/DTD/sodipodi-0.dtd"
   xmlns="http://www.w3.org/2000/svg"
   xmlns:svg="http://www.w3.org/2000/svg"><defs
   id="defs96" /><sodipodi:namedview
   id="namedview96"
   pagecolor="#ffffff"
   bordercolor="#000000"
   borderopacity="0.25"
   inkscape:showpageshadow="2"
   inkscape:pageopacity="0.0"
   inkscape:pagecheckerboard="0"
   inkscape:deskcolor="#d1d1d1"
   showgrid="false"
   inkscape:zoom="4.3727483"
   inkscape:cx="67.691982"
   inkscape:cy="72.15142"
   inkscape:window-width="1920"
   inkscape:window-height="991"
   inkscape:window-x="-9"
   inkscape:window-y="1341"
   inkscape:window-maximized="1"
   inkscape:current-layer="Objects" />

<g
   id="Objects"
   transform="translate(-174.09799,-198.62493)">
	
	
	
	
	
	
	
	<g
   id="g57"
   transform="matrix(1.3826464,0,0,1.3826464,67.061797,103.7588)">
		<polygon
   style="clip-rule:evenodd;fill:#86caef;fill-rule:evenodd"
   points="93.788,76.184 77.414,90.867 95.633,103.398 148.37,103.744 167.896,91.059 154.712,76.184 121.502,70.534 "
   id="polygon50" />
		<polygon
   style="clip-rule:evenodd;fill:#52bceb;fill-rule:evenodd"
   points="154.712,76.184 143.027,87.446 148.37,103.744 167.896,91.059 "
   id="polygon51" />
		<polygon
   style="clip-rule:evenodd;fill:#3aabe1;fill-rule:evenodd"
   points="143.027,87.446 104.474,87.062 95.633,103.398 148.37,103.744 "
   id="polygon52" />
		<polygon
   style="clip-rule:evenodd;fill:#52bceb;fill-rule:evenodd"
   points="104.474,87.062 93.788,76.184 77.414,90.867 95.633,103.398 "
   id="polygon53" />
		<polygon
   style="clip-rule:evenodd;fill:#2f85c7;fill-rule:evenodd"
   points="77.414,90.867 124.308,146.371 95.633,103.398 "
   id="polygon54" />
		<polygon
   style="clip-rule:evenodd;fill:#4392cf;fill-rule:evenodd"
   points="148.37,103.744 95.633,103.398 124.308,146.371 "
   id="polygon55" />
		<polygon
   style="clip-rule:evenodd;fill:#2f85c7;fill-rule:evenodd"
   points="167.896,91.059 148.37,103.744 124.308,146.371 "
   id="polygon56" />
		<path
   style="clip-rule:evenodd;fill:#fefefe;fill-rule:evenodd"
   d="m 146.678,68.612 v 0 0 c 0.077,3.229 0.115,9.878 2.46,13.607 1.038,1.653 2.921,2.306 4.843,2.46 -2.037,0.192 -4.267,1.345 -5.343,3.152 -2.153,3.728 -1.883,9.802 -1.96,12.915 v 0 0 c -0.077,-3.959 0.192,-9.571 -1.768,-12.915 -1.307,-2.229 -3.921,-3.037 -7.111,-3.152 2.96,-0.115 5.497,-0.615 6.803,-2.575 2.23,-3.345 2,-9.341 2.076,-13.492 z"
   id="path56" />
		<path
   style="clip-rule:evenodd;fill:#fefefe;fill-rule:evenodd;stroke-width:0.75572"
   d="m 106.68838,104.21759 v 0 h 0.0285 c 0.0285,3.0135 0.0863,9.24525 2.24941,12.69795 0.95138,1.5802 2.68233,2.16479 4.4703,2.3117 -1.87426,0.17583 -3.92258,1.25822 -4.93174,2.98457 -1.9898,3.4527 -1.75946,9.1288 -1.78797,12.054 h -0.0285 v 0 c -0.0578,-3.68638 0.17332,-8.95296 -1.6154,-12.08369 -1.18248,-2.10693 -3.60521,-2.83766 -6.54639,-2.95488 2.71084,-0.0875 5.04728,-0.55566 6.25827,-2.39923 2.04758,-3.1018 1.84575,-8.71929 1.90352,-12.61042 z"
   id="path57" />
	</g>
	
</g>

</svg>
